<mxfile host="app.diagrams.net" modified="2024-05-04T16:22:39.474Z" agent="Mozilla/5.0 (Windows NT 10.0; Win64; x64) AppleWebKit/537.36 (KHTML, like Gecko) Chrome/124.0.0.0 Safari/537.36" etag="8kkt98wyRwKHzmxNloVZ" version="24.3.1" type="onedrive">
  <diagram name="Page-1" id="2YBvvXClWsGukQMizWep">
    <mxGraphModel grid="1" page="1" gridSize="10" guides="1" tooltips="1" connect="1" arrows="1" fold="1" pageScale="1" pageWidth="850" pageHeight="1100" math="0" shadow="0">
      <root>
        <mxCell id="0" />
        <mxCell id="1" parent="0" />
        <mxCell id="aM9ryv3xv72pqoxQDRHE-1" value="Task Manager" style="shape=umlLifeline;perimeter=lifelinePerimeter;whiteSpace=wrap;html=1;container=0;dropTarget=0;collapsible=0;recursiveResize=0;outlineConnect=0;portConstraint=eastwest;newEdgeStyle={&quot;edgeStyle&quot;:&quot;elbowEdgeStyle&quot;,&quot;elbow&quot;:&quot;vertical&quot;,&quot;curved&quot;:0,&quot;rounded&quot;:0};" vertex="1" parent="1">
          <mxGeometry x="160" y="40" width="100" height="1060" as="geometry" />
        </mxCell>
        <mxCell id="aM9ryv3xv72pqoxQDRHE-2" value="" style="html=1;points=[];perimeter=orthogonalPerimeter;outlineConnect=0;targetShapes=umlLifeline;portConstraint=eastwest;newEdgeStyle={&quot;edgeStyle&quot;:&quot;elbowEdgeStyle&quot;,&quot;elbow&quot;:&quot;vertical&quot;,&quot;curved&quot;:0,&quot;rounded&quot;:0};" vertex="1" parent="aM9ryv3xv72pqoxQDRHE-1">
          <mxGeometry x="45" y="80" width="10" height="960" as="geometry" />
        </mxCell>
        <mxCell id="aM9ryv3xv72pqoxQDRHE-5" value="Database/File System" style="shape=umlLifeline;perimeter=lifelinePerimeter;whiteSpace=wrap;html=1;container=0;dropTarget=0;collapsible=0;recursiveResize=0;outlineConnect=0;portConstraint=eastwest;newEdgeStyle={&quot;edgeStyle&quot;:&quot;elbowEdgeStyle&quot;,&quot;elbow&quot;:&quot;vertical&quot;,&quot;curved&quot;:0,&quot;rounded&quot;:0};" vertex="1" parent="1">
          <mxGeometry x="360" y="40" width="100" height="1060" as="geometry" />
        </mxCell>
        <mxCell id="aM9ryv3xv72pqoxQDRHE-6" value="" style="html=1;points=[];perimeter=orthogonalPerimeter;outlineConnect=0;targetShapes=umlLifeline;portConstraint=eastwest;newEdgeStyle={&quot;edgeStyle&quot;:&quot;elbowEdgeStyle&quot;,&quot;elbow&quot;:&quot;vertical&quot;,&quot;curved&quot;:0,&quot;rounded&quot;:0};" vertex="1" parent="aM9ryv3xv72pqoxQDRHE-5">
          <mxGeometry x="45" y="80" width="10" height="960" as="geometry" />
        </mxCell>
        <mxCell id="Wna6AYXuXGDyB62ClqsL-1" value="User" style="shape=umlActor;verticalLabelPosition=bottom;verticalAlign=top;html=1;outlineConnect=0;" vertex="1" parent="1">
          <mxGeometry x="30" y="38" width="30" height="60" as="geometry" />
        </mxCell>
        <mxCell id="Wna6AYXuXGDyB62ClqsL-7" value="" style="html=1;points=[[0,0,0,0,5],[0,1,0,0,-5],[1,0,0,0,5],[1,1,0,0,-5]];perimeter=orthogonalPerimeter;outlineConnect=0;targetShapes=umlLifeline;portConstraint=eastwest;newEdgeStyle={&quot;curved&quot;:0,&quot;rounded&quot;:0};" vertex="1" parent="1">
          <mxGeometry x="40" y="120" width="10" height="960" as="geometry" />
        </mxCell>
        <mxCell id="Wna6AYXuXGDyB62ClqsL-9" value="" style="endArrow=block;dashed=1;endFill=0;endSize=12;html=1;rounded=0;" edge="1" parent="1">
          <mxGeometry width="160" relative="1" as="geometry">
            <mxPoint x="50" y="130" as="sourcePoint" />
            <mxPoint x="205" y="129.99999999999994" as="targetPoint" />
          </mxGeometry>
        </mxCell>
        <mxCell id="Wna6AYXuXGDyB62ClqsL-10" value="Create Task&amp;nbsp;" style="edgeLabel;html=1;align=center;verticalAlign=middle;resizable=0;points=[];" connectable="0" vertex="1" parent="Wna6AYXuXGDyB62ClqsL-9">
          <mxGeometry x="-0.2125" y="1" relative="1" as="geometry">
            <mxPoint as="offset" />
          </mxGeometry>
        </mxCell>
        <mxCell id="Wna6AYXuXGDyB62ClqsL-11" value="" style="endArrow=block;dashed=1;endFill=0;endSize=12;html=1;rounded=0;" edge="1" parent="1">
          <mxGeometry width="160" relative="1" as="geometry">
            <mxPoint x="220" y="140" as="sourcePoint" />
            <mxPoint x="410" y="140" as="targetPoint" />
          </mxGeometry>
        </mxCell>
        <mxCell id="Wna6AYXuXGDyB62ClqsL-12" value="Add Task" style="edgeLabel;html=1;align=center;verticalAlign=middle;resizable=0;points=[];" connectable="0" vertex="1" parent="Wna6AYXuXGDyB62ClqsL-11">
          <mxGeometry x="0.0842" relative="1" as="geometry">
            <mxPoint x="-8" as="offset" />
          </mxGeometry>
        </mxCell>
        <mxCell id="Wna6AYXuXGDyB62ClqsL-17" value="" style="endArrow=block;dashed=1;endFill=0;endSize=12;html=1;rounded=0;" edge="1" parent="1">
          <mxGeometry width="160" relative="1" as="geometry">
            <mxPoint x="215" y="309" as="sourcePoint" />
            <mxPoint x="405" y="309" as="targetPoint" />
          </mxGeometry>
        </mxCell>
        <mxCell id="Wna6AYXuXGDyB62ClqsL-18" value="Save Task Data" style="edgeLabel;html=1;align=center;verticalAlign=middle;resizable=0;points=[];" connectable="0" vertex="1" parent="Wna6AYXuXGDyB62ClqsL-17">
          <mxGeometry x="-0.2125" y="1" relative="1" as="geometry">
            <mxPoint as="offset" />
          </mxGeometry>
        </mxCell>
        <mxCell id="Wna6AYXuXGDyB62ClqsL-19" value="" style="endArrow=block;dashed=1;endFill=0;endSize=12;html=1;rounded=0;entryX=0.5;entryY=0.647;entryDx=0;entryDy=0;entryPerimeter=0;" edge="1" parent="1">
          <mxGeometry width="160" relative="1" as="geometry">
            <mxPoint x="405" y="184.51" as="sourcePoint" />
            <mxPoint x="210" y="184.5" as="targetPoint" />
          </mxGeometry>
        </mxCell>
        <mxCell id="Wna6AYXuXGDyB62ClqsL-20" value="Return Success/Fail" style="edgeLabel;html=1;align=center;verticalAlign=middle;resizable=0;points=[];" connectable="0" vertex="1" parent="Wna6AYXuXGDyB62ClqsL-19">
          <mxGeometry x="-0.0588" y="2" relative="1" as="geometry">
            <mxPoint y="-2" as="offset" />
          </mxGeometry>
        </mxCell>
        <mxCell id="Wna6AYXuXGDyB62ClqsL-21" value="" style="endArrow=block;dashed=1;endFill=0;endSize=12;html=1;rounded=0;" edge="1" parent="1">
          <mxGeometry width="160" relative="1" as="geometry">
            <mxPoint x="205" y="199" as="sourcePoint" />
            <mxPoint x="50" y="199" as="targetPoint" />
          </mxGeometry>
        </mxCell>
        <mxCell id="Wna6AYXuXGDyB62ClqsL-22" value="Task Created" style="edgeLabel;html=1;align=center;verticalAlign=middle;resizable=0;points=[];" connectable="0" vertex="1" parent="Wna6AYXuXGDyB62ClqsL-21">
          <mxGeometry x="-0.0588" y="2" relative="1" as="geometry">
            <mxPoint y="-2" as="offset" />
          </mxGeometry>
        </mxCell>
        <mxCell id="Wna6AYXuXGDyB62ClqsL-25" value="" style="endArrow=block;dashed=1;endFill=0;endSize=12;html=1;rounded=0;" edge="1" parent="1">
          <mxGeometry width="160" relative="1" as="geometry">
            <mxPoint x="209.5" y="160" as="sourcePoint" />
            <mxPoint x="405" y="160" as="targetPoint" />
          </mxGeometry>
        </mxCell>
        <mxCell id="Wna6AYXuXGDyB62ClqsL-26" value="Save Task Data" style="edgeLabel;html=1;align=center;verticalAlign=middle;resizable=0;points=[];" connectable="0" vertex="1" parent="Wna6AYXuXGDyB62ClqsL-25">
          <mxGeometry x="-0.2125" y="1" relative="1" as="geometry">
            <mxPoint x="24" y="2" as="offset" />
          </mxGeometry>
        </mxCell>
        <mxCell id="Wna6AYXuXGDyB62ClqsL-27" value="" style="endArrow=block;dashed=1;endFill=0;endSize=12;html=1;rounded=0;" edge="1" parent="1">
          <mxGeometry width="160" relative="1" as="geometry">
            <mxPoint x="405" y="339" as="sourcePoint" />
            <mxPoint x="215" y="339" as="targetPoint" />
          </mxGeometry>
        </mxCell>
        <mxCell id="Wna6AYXuXGDyB62ClqsL-28" value="Return Success/Fail" style="edgeLabel;html=1;align=center;verticalAlign=middle;resizable=0;points=[];" connectable="0" vertex="1" parent="Wna6AYXuXGDyB62ClqsL-27">
          <mxGeometry x="-0.0588" y="2" relative="1" as="geometry">
            <mxPoint y="-2" as="offset" />
          </mxGeometry>
        </mxCell>
        <mxCell id="Wna6AYXuXGDyB62ClqsL-38" value="" style="endArrow=block;dashed=1;endFill=0;endSize=12;html=1;rounded=0;" edge="1" parent="1">
          <mxGeometry width="160" relative="1" as="geometry">
            <mxPoint x="50" y="229.05" as="sourcePoint" />
            <mxPoint x="205" y="229" as="targetPoint" />
          </mxGeometry>
        </mxCell>
        <mxCell id="Wna6AYXuXGDyB62ClqsL-39" value="Update Task" style="edgeLabel;html=1;align=center;verticalAlign=middle;resizable=0;points=[];" connectable="0" vertex="1" parent="Wna6AYXuXGDyB62ClqsL-38">
          <mxGeometry x="-0.2125" y="1" relative="1" as="geometry">
            <mxPoint as="offset" />
          </mxGeometry>
        </mxCell>
        <mxCell id="Wna6AYXuXGDyB62ClqsL-44" value="" style="endArrow=block;dashed=1;endFill=0;endSize=12;html=1;rounded=0;" edge="1" parent="1">
          <mxGeometry width="160" relative="1" as="geometry">
            <mxPoint x="215" y="253.5" as="sourcePoint" />
            <mxPoint x="405" y="253.5" as="targetPoint" />
          </mxGeometry>
        </mxCell>
        <mxCell id="Wna6AYXuXGDyB62ClqsL-45" value="Retrieve Task" style="edgeLabel;html=1;align=center;verticalAlign=middle;resizable=0;points=[];" connectable="0" vertex="1" parent="Wna6AYXuXGDyB62ClqsL-44">
          <mxGeometry x="-0.2125" y="1" relative="1" as="geometry">
            <mxPoint as="offset" />
          </mxGeometry>
        </mxCell>
        <mxCell id="Wna6AYXuXGDyB62ClqsL-46" value="" style="endArrow=block;dashed=1;endFill=0;endSize=12;html=1;rounded=0;" edge="1" parent="1">
          <mxGeometry width="160" relative="1" as="geometry">
            <mxPoint x="215" y="279" as="sourcePoint" />
            <mxPoint x="410" y="279" as="targetPoint" />
          </mxGeometry>
        </mxCell>
        <mxCell id="Wna6AYXuXGDyB62ClqsL-47" value="Update Task" style="edgeLabel;html=1;align=center;verticalAlign=middle;resizable=0;points=[];" connectable="0" vertex="1" parent="Wna6AYXuXGDyB62ClqsL-46">
          <mxGeometry x="-0.2125" y="1" relative="1" as="geometry">
            <mxPoint as="offset" />
          </mxGeometry>
        </mxCell>
        <mxCell id="Wna6AYXuXGDyB62ClqsL-50" value="" style="endArrow=block;dashed=1;endFill=0;endSize=12;html=1;rounded=0;" edge="1" parent="1">
          <mxGeometry width="160" relative="1" as="geometry">
            <mxPoint x="205" y="359" as="sourcePoint" />
            <mxPoint x="50" y="359" as="targetPoint" />
          </mxGeometry>
        </mxCell>
        <mxCell id="Wna6AYXuXGDyB62ClqsL-51" value="Task Updated" style="edgeLabel;html=1;align=center;verticalAlign=middle;resizable=0;points=[];" connectable="0" vertex="1" parent="Wna6AYXuXGDyB62ClqsL-50">
          <mxGeometry x="-0.0588" y="2" relative="1" as="geometry">
            <mxPoint y="-2" as="offset" />
          </mxGeometry>
        </mxCell>
        <mxCell id="lPdefVTNea1aoFfl6_YY-1" value="" style="endArrow=block;dashed=1;endFill=0;endSize=12;html=1;rounded=0;" edge="1" parent="1">
          <mxGeometry width="160" relative="1" as="geometry">
            <mxPoint x="50" y="399.05" as="sourcePoint" />
            <mxPoint x="205" y="399" as="targetPoint" />
          </mxGeometry>
        </mxCell>
        <mxCell id="lPdefVTNea1aoFfl6_YY-2" value="Delete Task" style="edgeLabel;html=1;align=center;verticalAlign=middle;resizable=0;points=[];" connectable="0" vertex="1" parent="lPdefVTNea1aoFfl6_YY-1">
          <mxGeometry x="-0.2125" y="1" relative="1" as="geometry">
            <mxPoint as="offset" />
          </mxGeometry>
        </mxCell>
        <mxCell id="lPdefVTNea1aoFfl6_YY-3" value="" style="endArrow=block;dashed=1;endFill=0;endSize=12;html=1;rounded=0;" edge="1" parent="1">
          <mxGeometry width="160" relative="1" as="geometry">
            <mxPoint x="205" y="499" as="sourcePoint" />
            <mxPoint x="50" y="499" as="targetPoint" />
          </mxGeometry>
        </mxCell>
        <mxCell id="lPdefVTNea1aoFfl6_YY-4" value="Task Deleted" style="edgeLabel;html=1;align=center;verticalAlign=middle;resizable=0;points=[];" connectable="0" vertex="1" parent="lPdefVTNea1aoFfl6_YY-3">
          <mxGeometry x="-0.0588" y="2" relative="1" as="geometry">
            <mxPoint y="-2" as="offset" />
          </mxGeometry>
        </mxCell>
        <mxCell id="lPdefVTNea1aoFfl6_YY-5" value="" style="endArrow=block;dashed=1;endFill=0;endSize=12;html=1;rounded=0;" edge="1" parent="1">
          <mxGeometry width="160" relative="1" as="geometry">
            <mxPoint x="215" y="419" as="sourcePoint" />
            <mxPoint x="405" y="419" as="targetPoint" />
          </mxGeometry>
        </mxCell>
        <mxCell id="lPdefVTNea1aoFfl6_YY-6" value="Retrieve Task" style="edgeLabel;html=1;align=center;verticalAlign=middle;resizable=0;points=[];" connectable="0" vertex="1" parent="lPdefVTNea1aoFfl6_YY-5">
          <mxGeometry x="0.0842" relative="1" as="geometry">
            <mxPoint x="-8" as="offset" />
          </mxGeometry>
        </mxCell>
        <mxCell id="lPdefVTNea1aoFfl6_YY-7" value="" style="endArrow=block;dashed=1;endFill=0;endSize=12;html=1;rounded=0;" edge="1" parent="1">
          <mxGeometry width="160" relative="1" as="geometry">
            <mxPoint x="209.5" y="448.5" as="sourcePoint" />
            <mxPoint x="405" y="448.5" as="targetPoint" />
          </mxGeometry>
        </mxCell>
        <mxCell id="lPdefVTNea1aoFfl6_YY-8" value="Erase Task Data" style="edgeLabel;html=1;align=center;verticalAlign=middle;resizable=0;points=[];" connectable="0" vertex="1" parent="lPdefVTNea1aoFfl6_YY-7">
          <mxGeometry x="-0.2125" y="1" relative="1" as="geometry">
            <mxPoint x="24" y="2" as="offset" />
          </mxGeometry>
        </mxCell>
        <mxCell id="lPdefVTNea1aoFfl6_YY-9" value="" style="endArrow=block;dashed=1;endFill=0;endSize=12;html=1;rounded=0;entryX=0.5;entryY=0.647;entryDx=0;entryDy=0;entryPerimeter=0;" edge="1" parent="1">
          <mxGeometry width="160" relative="1" as="geometry">
            <mxPoint x="405" y="479.01" as="sourcePoint" />
            <mxPoint x="210" y="479" as="targetPoint" />
          </mxGeometry>
        </mxCell>
        <mxCell id="lPdefVTNea1aoFfl6_YY-10" value="Return Success/Fail" style="edgeLabel;html=1;align=center;verticalAlign=middle;resizable=0;points=[];" connectable="0" vertex="1" parent="lPdefVTNea1aoFfl6_YY-9">
          <mxGeometry x="-0.0588" y="2" relative="1" as="geometry">
            <mxPoint y="-2" as="offset" />
          </mxGeometry>
        </mxCell>
        <mxCell id="lPdefVTNea1aoFfl6_YY-11" value="" style="endArrow=block;dashed=1;endFill=0;endSize=12;html=1;rounded=0;" edge="1" parent="1">
          <mxGeometry width="160" relative="1" as="geometry">
            <mxPoint x="55" y="520.05" as="sourcePoint" />
            <mxPoint x="210" y="520" as="targetPoint" />
          </mxGeometry>
        </mxCell>
        <mxCell id="lPdefVTNea1aoFfl6_YY-12" value="Mark Task as complete" style="edgeLabel;html=1;align=center;verticalAlign=middle;resizable=0;points=[];" connectable="0" vertex="1" parent="lPdefVTNea1aoFfl6_YY-11">
          <mxGeometry x="-0.2125" y="1" relative="1" as="geometry">
            <mxPoint x="9" as="offset" />
          </mxGeometry>
        </mxCell>
        <mxCell id="lPdefVTNea1aoFfl6_YY-13" value="" style="endArrow=block;dashed=1;endFill=0;endSize=12;html=1;rounded=0;" edge="1" parent="1">
          <mxGeometry width="160" relative="1" as="geometry">
            <mxPoint x="205" y="630" as="sourcePoint" />
            <mxPoint x="50" y="630" as="targetPoint" />
          </mxGeometry>
        </mxCell>
        <mxCell id="lPdefVTNea1aoFfl6_YY-14" value="Marked Task as completed" style="edgeLabel;html=1;align=center;verticalAlign=middle;resizable=0;points=[];" connectable="0" vertex="1" parent="lPdefVTNea1aoFfl6_YY-13">
          <mxGeometry x="-0.0588" y="2" relative="1" as="geometry">
            <mxPoint x="3" y="-2" as="offset" />
          </mxGeometry>
        </mxCell>
        <mxCell id="lPdefVTNea1aoFfl6_YY-15" value="" style="endArrow=block;dashed=1;endFill=0;endSize=12;html=1;rounded=0;" edge="1" parent="1">
          <mxGeometry width="160" relative="1" as="geometry">
            <mxPoint x="220" y="540" as="sourcePoint" />
            <mxPoint x="410" y="540" as="targetPoint" />
          </mxGeometry>
        </mxCell>
        <mxCell id="lPdefVTNea1aoFfl6_YY-16" value="Retrieve Task" style="edgeLabel;html=1;align=center;verticalAlign=middle;resizable=0;points=[];" connectable="0" vertex="1" parent="lPdefVTNea1aoFfl6_YY-15">
          <mxGeometry x="0.0842" relative="1" as="geometry">
            <mxPoint x="-8" as="offset" />
          </mxGeometry>
        </mxCell>
        <mxCell id="lPdefVTNea1aoFfl6_YY-17" value="" style="endArrow=block;dashed=1;endFill=0;endSize=12;html=1;rounded=0;" edge="1" parent="1">
          <mxGeometry width="160" relative="1" as="geometry">
            <mxPoint x="215" y="570" as="sourcePoint" />
            <mxPoint x="410" y="569.5" as="targetPoint" />
          </mxGeometry>
        </mxCell>
        <mxCell id="lPdefVTNea1aoFfl6_YY-18" value="Update Task Status" style="edgeLabel;html=1;align=center;verticalAlign=middle;resizable=0;points=[];" connectable="0" vertex="1" parent="lPdefVTNea1aoFfl6_YY-17">
          <mxGeometry x="-0.2125" y="1" relative="1" as="geometry">
            <mxPoint x="24" y="2" as="offset" />
          </mxGeometry>
        </mxCell>
        <mxCell id="lPdefVTNea1aoFfl6_YY-19" value="" style="endArrow=block;dashed=1;endFill=0;endSize=12;html=1;rounded=0;entryX=0.5;entryY=0.647;entryDx=0;entryDy=0;entryPerimeter=0;" edge="1" parent="1">
          <mxGeometry width="160" relative="1" as="geometry">
            <mxPoint x="410" y="610.01" as="sourcePoint" />
            <mxPoint x="215" y="610" as="targetPoint" />
          </mxGeometry>
        </mxCell>
        <mxCell id="lPdefVTNea1aoFfl6_YY-20" value="Return Success/Fail" style="edgeLabel;html=1;align=center;verticalAlign=middle;resizable=0;points=[];" connectable="0" vertex="1" parent="lPdefVTNea1aoFfl6_YY-19">
          <mxGeometry x="-0.0588" y="2" relative="1" as="geometry">
            <mxPoint y="-2" as="offset" />
          </mxGeometry>
        </mxCell>
        <mxCell id="lPdefVTNea1aoFfl6_YY-21" value="" style="endArrow=block;dashed=1;endFill=0;endSize=12;html=1;rounded=0;" edge="1" parent="1">
          <mxGeometry width="160" relative="1" as="geometry">
            <mxPoint x="220" y="590" as="sourcePoint" />
            <mxPoint x="410" y="590" as="targetPoint" />
          </mxGeometry>
        </mxCell>
        <mxCell id="lPdefVTNea1aoFfl6_YY-22" value="Save Task Data" style="edgeLabel;html=1;align=center;verticalAlign=middle;resizable=0;points=[];" connectable="0" vertex="1" parent="lPdefVTNea1aoFfl6_YY-21">
          <mxGeometry x="-0.2125" y="1" relative="1" as="geometry">
            <mxPoint as="offset" />
          </mxGeometry>
        </mxCell>
        <mxCell id="lPdefVTNea1aoFfl6_YY-23" value="" style="endArrow=block;dashed=1;endFill=0;endSize=12;html=1;rounded=0;" edge="1" parent="1">
          <mxGeometry width="160" relative="1" as="geometry">
            <mxPoint x="50" y="650.05" as="sourcePoint" />
            <mxPoint x="205" y="650" as="targetPoint" />
          </mxGeometry>
        </mxCell>
        <mxCell id="lPdefVTNea1aoFfl6_YY-24" value="View Task" style="edgeLabel;html=1;align=center;verticalAlign=middle;resizable=0;points=[];" connectable="0" vertex="1" parent="lPdefVTNea1aoFfl6_YY-23">
          <mxGeometry x="-0.2125" y="1" relative="1" as="geometry">
            <mxPoint as="offset" />
          </mxGeometry>
        </mxCell>
        <mxCell id="lPdefVTNea1aoFfl6_YY-25" value="" style="endArrow=block;dashed=1;endFill=0;endSize=12;html=1;rounded=0;" edge="1" parent="1">
          <mxGeometry width="160" relative="1" as="geometry">
            <mxPoint x="205" y="750" as="sourcePoint" />
            <mxPoint x="50" y="750" as="targetPoint" />
          </mxGeometry>
        </mxCell>
        <mxCell id="lPdefVTNea1aoFfl6_YY-26" value="View Task" style="edgeLabel;html=1;align=center;verticalAlign=middle;resizable=0;points=[];" connectable="0" vertex="1" parent="lPdefVTNea1aoFfl6_YY-25">
          <mxGeometry x="-0.0588" y="2" relative="1" as="geometry">
            <mxPoint y="-2" as="offset" />
          </mxGeometry>
        </mxCell>
        <mxCell id="lPdefVTNea1aoFfl6_YY-27" value="" style="endArrow=block;dashed=1;endFill=0;endSize=12;html=1;rounded=0;" edge="1" parent="1">
          <mxGeometry width="160" relative="1" as="geometry">
            <mxPoint x="215" y="670" as="sourcePoint" />
            <mxPoint x="405" y="670" as="targetPoint" />
          </mxGeometry>
        </mxCell>
        <mxCell id="lPdefVTNea1aoFfl6_YY-28" value="Retrieve Task" style="edgeLabel;html=1;align=center;verticalAlign=middle;resizable=0;points=[];" connectable="0" vertex="1" parent="lPdefVTNea1aoFfl6_YY-27">
          <mxGeometry x="0.0842" relative="1" as="geometry">
            <mxPoint x="-8" as="offset" />
          </mxGeometry>
        </mxCell>
        <mxCell id="lPdefVTNea1aoFfl6_YY-29" value="" style="endArrow=block;dashed=1;endFill=0;endSize=12;html=1;rounded=0;" edge="1" parent="1">
          <mxGeometry width="160" relative="1" as="geometry">
            <mxPoint x="210" y="700" as="sourcePoint" />
            <mxPoint x="405" y="699.5" as="targetPoint" />
          </mxGeometry>
        </mxCell>
        <mxCell id="lPdefVTNea1aoFfl6_YY-30" value="Retrieve Task Data" style="edgeLabel;html=1;align=center;verticalAlign=middle;resizable=0;points=[];" connectable="0" vertex="1" parent="lPdefVTNea1aoFfl6_YY-29">
          <mxGeometry x="-0.2125" y="1" relative="1" as="geometry">
            <mxPoint x="24" y="2" as="offset" />
          </mxGeometry>
        </mxCell>
        <mxCell id="lPdefVTNea1aoFfl6_YY-31" value="" style="endArrow=block;dashed=1;endFill=0;endSize=12;html=1;rounded=0;entryX=0.5;entryY=0.647;entryDx=0;entryDy=0;entryPerimeter=0;" edge="1" parent="1">
          <mxGeometry width="160" relative="1" as="geometry">
            <mxPoint x="405" y="730.01" as="sourcePoint" />
            <mxPoint x="210" y="730" as="targetPoint" />
          </mxGeometry>
        </mxCell>
        <mxCell id="lPdefVTNea1aoFfl6_YY-32" value="Return Success/Fail" style="edgeLabel;html=1;align=center;verticalAlign=middle;resizable=0;points=[];" connectable="0" vertex="1" parent="lPdefVTNea1aoFfl6_YY-31">
          <mxGeometry x="-0.0588" y="2" relative="1" as="geometry">
            <mxPoint y="-2" as="offset" />
          </mxGeometry>
        </mxCell>
        <mxCell id="4L0IrKtG_vIbTom-AZ7t-10" value="" style="endArrow=block;dashed=1;endFill=0;endSize=12;html=1;rounded=0;" edge="1" parent="1">
          <mxGeometry width="160" relative="1" as="geometry">
            <mxPoint x="50" y="800.05" as="sourcePoint" />
            <mxPoint x="205" y="800" as="targetPoint" />
          </mxGeometry>
        </mxCell>
        <mxCell id="4L0IrKtG_vIbTom-AZ7t-11" value="Assign Task" style="edgeLabel;html=1;align=center;verticalAlign=middle;resizable=0;points=[];" connectable="0" vertex="1" parent="4L0IrKtG_vIbTom-AZ7t-10">
          <mxGeometry x="-0.2125" y="1" relative="1" as="geometry">
            <mxPoint as="offset" />
          </mxGeometry>
        </mxCell>
        <mxCell id="4L0IrKtG_vIbTom-AZ7t-12" value="" style="endArrow=block;dashed=1;endFill=0;endSize=12;html=1;rounded=0;" edge="1" parent="1">
          <mxGeometry width="160" relative="1" as="geometry">
            <mxPoint x="215" y="820" as="sourcePoint" />
            <mxPoint x="405" y="820" as="targetPoint" />
          </mxGeometry>
        </mxCell>
        <mxCell id="4L0IrKtG_vIbTom-AZ7t-13" value="Retrieve Task" style="edgeLabel;html=1;align=center;verticalAlign=middle;resizable=0;points=[];" connectable="0" vertex="1" parent="4L0IrKtG_vIbTom-AZ7t-12">
          <mxGeometry x="0.0842" relative="1" as="geometry">
            <mxPoint x="-8" as="offset" />
          </mxGeometry>
        </mxCell>
        <mxCell id="4L0IrKtG_vIbTom-AZ7t-14" value="" style="endArrow=block;dashed=1;endFill=0;endSize=12;html=1;rounded=0;" edge="1" parent="1">
          <mxGeometry width="160" relative="1" as="geometry">
            <mxPoint x="210" y="850" as="sourcePoint" />
            <mxPoint x="405" y="849.5" as="targetPoint" />
          </mxGeometry>
        </mxCell>
        <mxCell id="4L0IrKtG_vIbTom-AZ7t-15" value="Update Task Data" style="edgeLabel;html=1;align=center;verticalAlign=middle;resizable=0;points=[];" connectable="0" vertex="1" parent="4L0IrKtG_vIbTom-AZ7t-14">
          <mxGeometry x="-0.2125" y="1" relative="1" as="geometry">
            <mxPoint x="24" y="2" as="offset" />
          </mxGeometry>
        </mxCell>
        <mxCell id="4L0IrKtG_vIbTom-AZ7t-16" value="" style="endArrow=block;dashed=1;endFill=0;endSize=12;html=1;rounded=0;entryX=0.5;entryY=0.647;entryDx=0;entryDy=0;entryPerimeter=0;" edge="1" parent="1">
          <mxGeometry width="160" relative="1" as="geometry">
            <mxPoint x="405" y="880.01" as="sourcePoint" />
            <mxPoint x="210" y="880" as="targetPoint" />
          </mxGeometry>
        </mxCell>
        <mxCell id="4L0IrKtG_vIbTom-AZ7t-17" value="Return Success/Fail" style="edgeLabel;html=1;align=center;verticalAlign=middle;resizable=0;points=[];" connectable="0" vertex="1" parent="4L0IrKtG_vIbTom-AZ7t-16">
          <mxGeometry x="-0.0588" y="2" relative="1" as="geometry">
            <mxPoint y="-2" as="offset" />
          </mxGeometry>
        </mxCell>
        <mxCell id="4L0IrKtG_vIbTom-AZ7t-18" value="" style="endArrow=block;dashed=1;endFill=0;endSize=12;html=1;rounded=0;" edge="1" parent="1">
          <mxGeometry width="160" relative="1" as="geometry">
            <mxPoint x="205" y="900" as="sourcePoint" />
            <mxPoint x="50" y="900" as="targetPoint" />
          </mxGeometry>
        </mxCell>
        <mxCell id="4L0IrKtG_vIbTom-AZ7t-19" value="Assigned Task" style="edgeLabel;html=1;align=center;verticalAlign=middle;resizable=0;points=[];" connectable="0" vertex="1" parent="4L0IrKtG_vIbTom-AZ7t-18">
          <mxGeometry x="-0.0588" y="2" relative="1" as="geometry">
            <mxPoint y="-2" as="offset" />
          </mxGeometry>
        </mxCell>
        <mxCell id="4L0IrKtG_vIbTom-AZ7t-20" value="" style="endArrow=block;dashed=1;endFill=0;endSize=12;html=1;rounded=0;" edge="1" parent="1">
          <mxGeometry width="160" relative="1" as="geometry">
            <mxPoint x="50" y="940.05" as="sourcePoint" />
            <mxPoint x="205" y="940" as="targetPoint" />
          </mxGeometry>
        </mxCell>
        <mxCell id="4L0IrKtG_vIbTom-AZ7t-21" value="View Task List" style="edgeLabel;html=1;align=center;verticalAlign=middle;resizable=0;points=[];" connectable="0" vertex="1" parent="4L0IrKtG_vIbTom-AZ7t-20">
          <mxGeometry x="-0.2125" y="1" relative="1" as="geometry">
            <mxPoint x="9" as="offset" />
          </mxGeometry>
        </mxCell>
        <mxCell id="4L0IrKtG_vIbTom-AZ7t-22" value="" style="endArrow=block;dashed=1;endFill=0;endSize=12;html=1;rounded=0;" edge="1" parent="1">
          <mxGeometry width="160" relative="1" as="geometry">
            <mxPoint x="215" y="960" as="sourcePoint" />
            <mxPoint x="405" y="960" as="targetPoint" />
          </mxGeometry>
        </mxCell>
        <mxCell id="4L0IrKtG_vIbTom-AZ7t-23" value="Retrieve Task list" style="edgeLabel;html=1;align=center;verticalAlign=middle;resizable=0;points=[];" connectable="0" vertex="1" parent="4L0IrKtG_vIbTom-AZ7t-22">
          <mxGeometry x="0.0842" relative="1" as="geometry">
            <mxPoint x="-8" as="offset" />
          </mxGeometry>
        </mxCell>
        <mxCell id="4L0IrKtG_vIbTom-AZ7t-24" value="" style="endArrow=block;dashed=1;endFill=0;endSize=12;html=1;rounded=0;" edge="1" parent="1">
          <mxGeometry width="160" relative="1" as="geometry">
            <mxPoint x="210" y="990" as="sourcePoint" />
            <mxPoint x="405" y="989.5" as="targetPoint" />
          </mxGeometry>
        </mxCell>
        <mxCell id="4L0IrKtG_vIbTom-AZ7t-25" value="Retrieve Task list data" style="edgeLabel;html=1;align=center;verticalAlign=middle;resizable=0;points=[];" connectable="0" vertex="1" parent="4L0IrKtG_vIbTom-AZ7t-24">
          <mxGeometry x="-0.2125" y="1" relative="1" as="geometry">
            <mxPoint x="24" y="2" as="offset" />
          </mxGeometry>
        </mxCell>
        <mxCell id="4L0IrKtG_vIbTom-AZ7t-26" value="" style="endArrow=block;dashed=1;endFill=0;endSize=12;html=1;rounded=0;entryX=0.5;entryY=0.647;entryDx=0;entryDy=0;entryPerimeter=0;" edge="1" parent="1">
          <mxGeometry width="160" relative="1" as="geometry">
            <mxPoint x="405" y="1020.01" as="sourcePoint" />
            <mxPoint x="210" y="1020" as="targetPoint" />
          </mxGeometry>
        </mxCell>
        <mxCell id="4L0IrKtG_vIbTom-AZ7t-27" value="Return Success/Fail" style="edgeLabel;html=1;align=center;verticalAlign=middle;resizable=0;points=[];" connectable="0" vertex="1" parent="4L0IrKtG_vIbTom-AZ7t-26">
          <mxGeometry x="-0.0588" y="2" relative="1" as="geometry">
            <mxPoint y="-2" as="offset" />
          </mxGeometry>
        </mxCell>
        <mxCell id="4L0IrKtG_vIbTom-AZ7t-28" value="" style="endArrow=block;dashed=1;endFill=0;endSize=12;html=1;rounded=0;" edge="1" parent="1">
          <mxGeometry width="160" relative="1" as="geometry">
            <mxPoint x="205" y="1040" as="sourcePoint" />
            <mxPoint x="50" y="1040" as="targetPoint" />
          </mxGeometry>
        </mxCell>
        <mxCell id="4L0IrKtG_vIbTom-AZ7t-29" value="View Task list" style="edgeLabel;html=1;align=center;verticalAlign=middle;resizable=0;points=[];" connectable="0" vertex="1" parent="4L0IrKtG_vIbTom-AZ7t-28">
          <mxGeometry x="-0.0588" y="2" relative="1" as="geometry">
            <mxPoint y="-2" as="offset" />
          </mxGeometry>
        </mxCell>
      </root>
    </mxGraphModel>
  </diagram>
</mxfile>
